<svg id="Capa_1" enable-background="new 0 0 512 512" height="512" viewBox="0 0 512 512" width="512" xmlns="http://www.w3.org/2000/svg"><path d="m107.813 221.297h-12.239v22.992h12.238c6.922 0 11.125-2.844 11.125-11.496.001-8.654-4.203-11.496-11.124-11.496z"/><path d="m384.52 223.457c-15.364 0-27.864 12.499-27.864 27.863s12.5 27.864 27.864 27.864 27.864-12.5 27.864-27.864-12.5-27.863-27.864-27.863z"/><path d="m485 129.391h-458c-14.888 0-27 12.112-27 27v199.219c0 14.888 12.112 27 27 27h458c14.888 0 27-12.112 27-27v-199.219c0-14.888-12.112-27-27-27zm-358.151 166.195c-2.473 0-4.821-.988-6.181-3.584l-16.935-32.881h-8.159v29.791c0 3.955-4.82 5.934-9.642 5.934-4.82 0-9.642-1.979-9.642-5.934v-78.617c0-3.09 2.349-5.811 5.934-5.811h25.588c16.935 0 30.408 6.305 30.408 26.453 0 13.846-6.305 21.756-14.957 25.094l15.08 27.318c.495.742.618 1.607.618 2.225.001 4.821-6.427 10.012-12.112 10.012zm59.458-53.398c3.708 0 5.81 3.584 5.81 7.539 0 3.338-1.73 7.293-5.81 7.293h-18.542v21.014h33.128c3.709 0 5.811 3.957 5.811 8.529 0 3.957-1.731 8.283-5.811 8.283h-44.005c-4.203 0-8.406-1.979-8.406-5.934v-78.494c0-3.955 4.203-5.934 8.406-5.934h44.005c4.079 0 5.811 4.328 5.811 8.283 0 4.574-2.102 8.529-5.811 8.529h-33.128v20.891h18.542zm57.479 36.587c9.89 0 10.508-7.539 10.878-12.361.371-4.572 4.574-5.809 9.518-5.809 6.675 0 9.765 1.73 9.765 9.147 0 16.441-13.35 25.834-31.026 25.834-16.192 0-29.666-7.91-29.666-29.172v-32.756c0-21.262 13.474-29.174 29.666-29.174 17.677 0 31.026 8.9 31.026 24.6 0 7.416-3.09 9.146-9.642 9.146-5.191 0-9.395-1.359-9.642-5.809-.123-3.215-.494-11.125-11.001-11.125-7.046 0-11.125 3.955-11.125 12.361v32.756c.001 8.407 4.08 12.362 11.249 12.362zm140.734 30.41c-31.906 0-57.864-25.958-57.864-57.864s25.958-57.863 57.864-57.863 57.864 25.957 57.864 57.863-25.958 57.864-57.864 57.864z"/></svg>