<svg id="Layer_1" height="512" viewBox="0 0 128 128" width="512" xmlns="http://www.w3.org/2000/svg" data-name="Layer 1" fill="white"><path d="m115 84.079h-102a1.75 1.75 0 0 0 -1.75 1.75v17.946a1.75 1.75 0 0 0 1.75 1.75h102a1.75 1.75 0 0 0 1.75-1.75v-17.946a1.75 1.75 0 0 0 -1.75-1.75zm-1.75 17.946h-11.05v-7.909a1.75 1.75 0 0 0 -3.5 0v7.909h-8.648v-4.98a1.75 1.75 0 0 0 -3.5 0v4.98h-8.652v-7.909a1.75 1.75 0 0 0 -3.5 0v7.909h-8.65v-4.98a1.75 1.75 0 0 0 -3.5 0v4.98h-8.65v-7.909a1.75 1.75 0 0 0 -3.5 0v7.909h-8.652v-4.98a1.75 1.75 0 0 0 -3.5 0v4.98h-8.648v-7.909a1.75 1.75 0 0 0 -3.5 0v7.909h-11.05v-14.446h98.5z"/><path d="m90.042 60.142a10.958 10.958 0 1 0 -10.959-10.959 10.971 10.971 0 0 0 10.959 10.959zm0-18.417a7.458 7.458 0 1 1 -7.459 7.458 7.467 7.467 0 0 1 7.459-7.458z"/><path d="m72.625 69.558h5.625a1.75 1.75 0 0 0 1.75-1.75v-5.625a1.75 1.75 0 0 0 -1.75-1.75h-5.625a1.75 1.75 0 0 0 -1.75 1.75v5.625a1.75 1.75 0 0 0 1.75 1.75zm1.75-5.625h2.125v2.125h-2.125z"/><path d="m13 72.533h44.917v1.608a1.75 1.75 0 0 0 1.75 1.75h30.375a26.708 26.708 0 1 0 -26.709-26.708v11.25h-3.666a1.75 1.75 0 0 0 -1.75 1.75v1.782h-43.167v-.89a1.75 1.75 0 0 0 -3.5 0v7.708a1.75 1.75 0 0 0 1.75 1.75zm53.833-23.35a23.208 23.208 0 1 1 23.209 23.209h-23.209zm-5.417 14.75h1.917v8.458h-1.916v-8.458zm-3.5 3.532v1.568h-43.166v-1.568z"/></svg>